<?xml version="1.0" encoding="UTF-8" standalone="no"?>
<svg
   version="1.1"
   viewBox="0 0 264.58333 330.72917500000005"
   x="0px"
   y="0px"
   id="svg2"
   sodipodi:docname="icon.svg"
   inkscape:version="1.4.2 (ebf0e940, 2025-05-08)"
   inkscape:export-filename="icon.png"
   inkscape:export-xdpi="1200"
   inkscape:export-ydpi="1200"
   xmlns:inkscape="http://www.inkscape.org/namespaces/inkscape"
   xmlns:sodipodi="http://sodipodi.sourceforge.net/DTD/sodipodi-0.dtd"
   xmlns="http://www.w3.org/2000/svg"
   xmlns:svg="http://www.w3.org/2000/svg">
  <defs
     id="defs2" />
  <sodipodi:namedview
     id="namedview2"
     pagecolor="#ffffff"
     bordercolor="#000000"
     borderopacity="0.25"
     inkscape:showpageshadow="2"
     inkscape:pageopacity="0.0"
     inkscape:pagecheckerboard="0"
     inkscape:deskcolor="#d1d1d1"
     inkscape:zoom="2.5821731"
     inkscape:cx="132.25295"
     inkscape:cy="165.36459"
     inkscape:window-width="1728"
     inkscape:window-height="1051"
     inkscape:window-x="178"
     inkscape:window-y="38"
     inkscape:window-maximized="0"
     inkscape:current-layer="g1" />
  <g
     id="g1">
    <path
       d="m 145.12438,15.147551 c -0.0341,-3.65e-4 -0.0682,-3.1e-5 -0.10232,10e-4 -0.35473,0.01128 -0.703,0.09795 -1.02164,0.254248 -13.57615,6.667626 -22.25804,21.517963 -22.35729,37.779087 -0.0989,16.221149 8.38052,30.954088 21.84982,37.453528 0.36225,0.193375 0.76656,0.294541 1.17719,0.294558 0.0844,-3.8e-5 0.16874,-0.0044 0.2527,-0.01292 h 0.002 c 0.0219,-0.0023 0.0438,-0.0049 0.0656,-0.0078 l 0.003,-5.16e-4 c 0.0445,-0.0057 0.0887,-0.01259 0.13281,-0.02067 l 0.002,-5.16e-4 c 0.0362,-0.0068 0.0722,-0.01437 0.108,-0.02274 0.18601,-0.04282 0.3665,-0.106798 0.53795,-0.190685 13.57609,-6.667654 22.25597,-21.518004 22.35523,-37.77909 0.0991,-16.261103 -8.41989,-31.027323 -21.94698,-37.502103 -0.33037,-0.158331 -0.69149,-0.242128 -1.05782,-0.245463 z m -0.009,5.389852 c 10.94452,5.824681 18.09934,18.30848 18.01388,32.326192 -0.0789,12.930362 -6.32186,24.684916 -15.95923,31.148485 V 47.341968 c -2.3e-4,-1.380595 -1.11952,-2.499651 -2.50011,-2.49959 -1.38039,2.32e-4 -2.49935,1.119202 -2.49958,2.49959 v 36.710419 c -9.52621,-6.299491 -15.6065,-17.914953 -15.52774,-30.838944 0.0856,-14.023186 7.41949,-26.668899 18.47278,-32.67604 z M 76.013355,72.873225 c -0.770535,-0.0049 -1.539322,0.0032 -2.305804,0.02377 -21.461444,0.574897 -41.214862,11.108629 -51.912075,28.427725 -0.397562,0.64366 -0.482301,1.43272 -0.230477,2.14612 7.762138,21.93411 28.959102,37.71391 53.872681,40.38306 23.742009,2.5434 46.70357,-7.26534 59.39121,-25.32351 2.68992,6.56538 4.99561,14.61467 6.49882,24.53235 -15.86841,0.7916 -23.56593,4.37235 -30.77435,10.06243 -7.71318,6.08838 -16.77701,10.8098 -22.837879,11.16625 -4.548216,0.2675 -9.281874,2.42625 -12.892751,4.32841 -1.712764,-0.21775 -3.422705,-0.40769 -5.126818,-0.56069 -0.05843,-0.005 -0.117035,-0.009 -0.175702,-0.01 -22.906159,-0.43209 -46.148603,9.3865 -46.148603,9.3865 -0.93086,0.38845 -1.537146,1.29818 -1.537374,2.30684 v 51.99579 c 7.7e-5,1.38074 1.119367,2.50003 2.500106,2.50011 h 38.20697 c 6.845247,0.27199 23.296107,4.02946 39.043091,7.75198 7.87805,1.86234 15.64829,3.71078 22.18728,5.09943 6.539,1.38865 11.69354,2.34611 15.04301,2.34611 0.007,3e-5 0.0145,3e-5 0.0217,0 18.56358,-0.16244 38.17863,-11.03463 56.27512,-24.4104 18.09648,-13.37577 34.68107,-29.40876 46.62713,-40.39236 0.17361,-0.16044 0.32358,-0.3447 0.44545,-0.54726 0,0 1.46517,-1.94876 0.80667,-4.64622 -0.32924,-1.34874 -1.43671,-2.75646 -2.9962,-3.4923 -1.55949,-0.73584 -3.48521,-1.00523 -6.08594,-0.90795 -0.01,-6e-5 -0.0197,-6e-5 -0.0295,0 -1.2711,0.0625 -2.52925,0.1895 -3.77755,0.36638 l -2.01538,-2.95072 c -0.18061,-0.26534 -0.41063,-0.49342 -0.67748,-0.67179 0,0 -2.62389,-1.74874 -6.15828,-3.54294 -3.53439,-1.7942 -7.95301,-3.72568 -12.21682,-3.9765 -6.06088,-0.35645 -15.12487,-5.07791 -22.83788,-11.16625 -8.21244,-6.4826 -16.97468,-10.25548 -37.82043,-10.2557 -0.1712,8e-5 -0.34194,0.0177 -0.50953,0.0527 -0.51001,0.002 -1.00765,0.008 -1.50327,0.0139 -3.74098,-25.33799 -12.74015,-39.68839 -20.54397,-48.002238 -0.0827,-0.08814 -0.1716,-0.170181 -0.26613,-0.245462 C 115.10535,82.937954 99.904462,75.080279 82.988639,73.268034 80.652988,73.017831 78.324959,72.887859 76.013355,72.873225 Z m -0.02997,4.999697 c 2.143215,0.01382 4.303038,0.135077 6.471954,0.367418 20.053481,2.148393 37.317341,13.478717 46.158421,29.44264 C 114.1388,99.464781 95.658948,95.158296 76.117741,94.597998 68.436376,94.377751 60.591936,94.735902 52.76206,95.662531 c -1.370999,0.161944 -2.35122,1.404514 -2.18953,2.775543 0.162175,1.371697 1.406001,2.351946 2.777609,2.189016 29.314029,-3.469182 58.767661,1.51777 77.684141,14.45493 C 119.56166,131.84944 98.25137,141.2679 75.970979,138.88108 53.293008,136.45144 34.182537,122.28097 26.78742,102.94374 36.661403,87.822199 54.403578,78.420098 73.846044,77.894625 c 0.710431,-0.0192 1.422932,-0.02631 2.137339,-0.0217 z m 117.116875,4.392496 c -0.27457,-7.12e-4 -0.54911,0.0012 -0.82424,0.0062 -5.28234,0.09521 -10.65591,1.236912 -15.75201,3.451469 -13.5541,5.890241 -22.74354,18.352013 -23.23837,31.956193 -0.003,0.0347 -0.005,0.0695 -0.006,0.10438 -3e-5,6.9e-4 2e-5,0.001 0,0.002 -4.9e-4,0.016 -8.2e-4,0.0321 -0.001,0.0481 -5.9e-4,0.0393 -2.6e-4,0.0786 0.001,0.11782 2.7e-4,0.0107 6e-4,0.0213 0.001,0.032 1.7e-4,0.002 3.4e-4,0.005 5.2e-4,0.007 8.4e-4,0.0162 0.002,0.0324 0.003,0.0486 0.003,0.0421 0.007,0.0842 0.0119,0.12609 6.4e-4,0.006 0.001,0.0127 0.002,0.0191 0.001,0.01 0.003,0.02 0.004,0.03 0.002,0.0131 0.004,0.0262 0.006,0.0393 6.6e-4,0.003 0.001,0.006 0.002,0.009 0.003,0.0159 0.005,0.0317 0.008,0.0475 0.004,0.0212 0.008,0.0425 0.0124,0.0636 3.3e-4,0.002 6.6e-4,0.005 0.001,0.007 0.001,0.005 0.003,0.011 0.004,0.0165 0.003,0.0157 0.007,0.0314 0.0109,0.047 0.005,0.0206 0.0101,0.0411 0.0155,0.0615 9.9e-4,0.003 0.002,0.007 0.003,0.0103 0.004,0.0154 0.008,0.0307 0.0129,0.046 0.002,0.007 0.004,0.0138 0.006,0.0207 0.004,0.0142 0.008,0.0283 0.0129,0.0424 0.002,0.007 0.005,0.0148 0.007,0.0222 0.001,0.004 0.003,0.009 0.004,0.0134 0.005,0.0154 0.0105,0.0307 0.016,0.046 0.007,0.0208 0.0152,0.0414 0.0232,0.062 l 0.001,0.004 c 0.15244,0.39276 0.40166,0.74063 0.72451,1.01131 10.54827,8.83422 26.10929,10.56355 39.69886,4.65811 13.58959,-5.90561 22.79406,-18.41691 23.24458,-32.062639 0.025,-0.767754 -0.30422,-1.504407 -0.89297,-1.99781 -6.38667,-5.348873 -14.61078,-8.093726 -23.12262,-8.115784 z m -0.0822,5.014679 c 6.99696,0.01614 13.67939,2.179315 18.95698,6.197039 -0.89445,11.016574 -8.56147,21.366234 -20.09593,26.378754 -11.13796,4.84006 -23.63485,3.70949 -32.5112,-2.47996 1.35145,-1.50814 3.65975,-3.75854 7.13032,-6.12934 6.13044,-4.1878 15.73023,-8.57423 29.75787,-9.15861 1.37967,-0.057 2.45187,-1.22173 2.39469,-2.601392 -0.056,-1.35217 -1.1779,-2.414238 -2.53111,-2.396236 -0.0234,2.04e-4 -0.0469,7.37e-4 -0.0703,0.0016 -14.97871,0.624004 -25.56586,5.376958 -32.37115,10.025748 -1.46682,1.002 -2.75509,2.00391 -3.88917,2.96416 2.81282,-8.40289 9.54126,-15.781077 18.72702,-19.772957 4.49127,-1.95172 9.20916,-2.942918 13.82396,-3.023587 0.22633,-0.004 0.45229,-0.0057 0.678,-0.0052 z m -44.36939,60.573563 c 20.03717,0.0331 26.82152,3.1466 34.44958,9.16792 8.16852,6.44789 17.49345,11.75514 25.64236,12.23439 2.84119,0.16713 6.98891,1.78828 10.24589,3.44165 3.04881,1.5477 5.00723,2.85642 5.28753,3.04116 l 0.50384,0.73742 c -0.0406,0.008 -0.11949,0.0304 -0.23822,0.0724 -0.13691,0.0375 -0.27351,0.079 -0.41031,0.11782 -0.0364,0.0102 -0.0726,0.0212 -0.10904,0.0315 -0.23772,0.0681 -0.47552,0.13322 -0.71314,0.20463 0.0384,-0.0109 -0.0837,0.0324 -0.0589,0.0238 -0.002,4.6e-4 -0.003,5.8e-4 -0.005,10e-4 -0.009,0.002 -0.0189,0.005 -0.0284,0.007 l 0.0491,-0.0196 c -0.0165,0.005 -0.0239,0.007 -0.0387,0.0114 0.002,-0.0108 -0.0566,0.003 -0.18501,0.0589 -0.0508,0.0156 -0.0985,0.0309 -0.14882,0.0465 -0.13358,0.0411 -0.26667,0.0839 -0.39998,0.12609 -0.0854,0.0272 -0.17492,0.054 -0.2589,0.0811 -0.0143,0.004 -0.0286,0.009 -0.0429,0.0139 -0.0937,0.0303 -0.16319,0.0548 -0.21084,0.0703 l 0.0176,-0.004 c -0.005,0.002 -0.0111,0.003 -0.0165,0.005 -0.0168,0.005 -0.0334,0.009 -0.0501,0.0145 -0.0425,0.0141 -0.086,0.0297 -0.12868,0.0439 -0.30315,0.10038 -0.60565,0.20327 -0.90743,0.30902 l -0.001,5.2e-4 -0.009,0.003 c -2.34988,0.82402 -4.65856,1.80731 -6.92723,2.91197 -0.0139,6.1e-4 -0.0742,0.0296 -0.16536,0.0801 -0.27923,0.13679 -0.55759,0.27617 -0.83561,0.41651 -0.025,0.008 -0.0754,0.034 -0.15348,0.0775 -3.84612,1.95173 -7.57562,4.23379 -11.20138,6.64611 -0.0927,0.0614 -0.18583,0.12123 -0.27854,0.18293 0.0199,-0.0126 0.0224,-0.012 0.0408,-0.0232 -0.0428,0.0286 -0.0853,0.0576 -0.12815,0.0863 l 0.0191,-0.0181 c -0.35778,0.23841 -0.72376,0.48119 -1.09554,0.73277 -0.0377,0.0255 -0.0698,0.0485 -0.0351,0.0253 -0.004,0.003 -0.008,0.005 -0.0119,0.008 -0.39549,0.26783 -0.78616,0.53469 -1.17357,0.80098 -0.0284,0.0193 -0.0552,0.0381 -0.0822,0.0563 -0.005,0.003 -0.009,0.007 -0.0139,0.01 -0.21501,0.14796 -0.43324,0.29729 -0.65216,0.44907 -0.0528,0.0365 -0.0875,0.0616 -0.0744,0.0527 -0.005,0.003 -0.0104,0.007 -0.0155,0.01 -0.43522,0.30193 -0.87322,0.60631 -1.31413,0.91623 -0.0411,0.0286 -0.0777,0.0539 -0.0842,0.0584 l 0.0196,-0.0114 c 0.0318,-0.0216 -0.066,0.0528 -0.0506,0.0408 l 0.006,-0.0119 c -0.0814,0.056 -0.11186,0.079 -0.094,0.0667 -0.005,0.004 -0.0103,0.008 -0.0155,0.0114 -2.28022,1.60565 -4.51132,3.22302 -6.7107,4.81676 v -0.002 c -0.73749,0.53429 -1.47602,1.06684 -2.20917,1.59577 -0.0951,0.0686 -0.18823,0.1356 -0.28319,0.20412 -9.75354,6.96041 -18.67844,12.796 -26.1922,13.52372 -0.048,0.005 -0.0916,0.009 -0.1266,0.0129 -0.13353,0.0119 -0.26528,0.0177 -0.39791,0.0264 -0.11934,0.006 -0.23816,0.0128 -0.35967,0.0181 l -6.16862,-1.3472 c 6.46894,-1.69053 11.77634,-7.62479 11.56054,-14.67301 -0.007,-0.23358 -0.0191,-0.4682 -0.0382,-0.70435 -0.001,-0.0138 -0.003,-0.0275 -0.004,-0.0413 0,0 -0.16961,-1.83361 -1.47278,-3.47421 -1.30265,-1.63995 -3.93489,-3.02295 -7.46517,-2.69957 h -0.004 c -1.32299,0.12006 -2.81586,0.23488 -4.38578,0.32814 -5.32392,0.28316 -11.59325,0.28085 -15.36754,-0.5581 -0.026,-0.006 -0.0505,-0.0119 -0.077,-0.0181 -0.005,-6.8e-4 -0.0103,-0.001 -0.0155,-0.002 -0.0591,-0.0135 -0.0427,-0.01 -0.0486,-0.0108 -0.045,-0.0104 -0.087,-0.0219 -0.13126,-0.0326 -0.23387,-0.0592 -0.45213,-0.12327 -0.66405,-0.18707 -0.45804,-0.23749 -0.91693,-0.47267 -1.37872,-0.70693 h -0.002 c -0.27366,-0.13875 -0.54186,-0.27134 -0.79892,-0.39997 -0.29069,-0.14553 -0.58728,-0.29524 -0.89607,-0.44752 -0.24974,-0.12311 -0.49619,-0.24306 -0.73432,-0.35915 -0.003,-0.001 -0.007,-0.003 -0.01,-0.004 -0.004,-0.002 -0.008,-0.004 -0.0119,-0.006 -0.004,-0.003 -0.009,-0.005 -0.0134,-0.008 -0.0152,-0.007 -0.0318,-0.0143 -0.047,-0.0217 -0.29947,-0.14587 -0.60228,-0.2938 -0.91416,-0.44338 -0.011,-0.005 -0.022,-0.009 -0.0331,-0.0134 -0.029,-0.0143 -0.0583,-0.0281 -0.0879,-0.0413 h -0.002 c -0.23178,-0.11067 -0.46379,-0.21999 -0.68781,-0.32608 v -0.002 c -0.29853,-0.14128 -0.60068,-0.28307 -0.91002,-0.42737 -0.31929,-0.14902 -0.63559,-0.29553 -0.9493,-0.43977 -0.25983,-0.11945 -0.52346,-0.24062 -0.7891,-0.36121 h -0.002 c -0.27995,-0.12714 -0.56155,-0.25394 -0.84233,-0.37982 -0.0795,-0.0473 -0.19693,-0.10929 -0.37879,-0.16795 -0.14734,-0.066 -0.29474,-0.13186 -0.44234,-0.19741 -0.0822,-0.0526 -0.21764,-0.12917 -0.44184,-0.19378 -0.22827,-0.1005 -0.45642,-0.20062 -0.68781,-0.30128 -0.004,-0.002 -0.008,-0.004 -0.0119,-0.006 l -0.006,-0.002 c -0.0599,-0.0264 -0.12436,-0.0537 -0.19121,-0.0822 -1.15372,-0.50006 -2.32332,-0.99555 -3.50986,-1.4826 -0.0413,-0.0166 -0.083,-0.0321 -0.12506,-0.0465 h -0.002 c -0.23729,-0.0969 -0.47119,-0.19167 -0.69712,-0.28319 -0.37287,-0.15118 -0.75195,-0.30537 -1.13894,-0.4594 -0.0374,-0.0145 -0.0751,-0.0281 -0.11318,-0.0408 -0.003,-0.001 -0.007,-0.003 -0.01,-0.004 -0.0871,-0.0343 -0.17892,-0.0703 -0.24804,-0.0977 -0.0129,-0.005 -0.0258,-0.0108 -0.0388,-0.016 l 0.0155,0.004 c -2.33607,-0.92438 -4.72435,-1.82018 -7.15615,-2.67788 h -0.002 c -0.64885,-0.2289 -1.29962,-0.45354 -1.9513,-0.67592 -0.15575,-0.0532 -0.31168,-0.1048 -0.46767,-0.15762 -0.20203,-0.0685 -0.40465,-0.13615 -0.6072,-0.20412 -0.19512,-0.0654 -0.39021,-0.13231 -0.58497,-0.19689 -0.022,-0.007 -0.044,-0.0127 -0.0662,-0.0186 -0.0946,-0.0314 -0.189,-0.0633 -0.2837,-0.0946 l -0.008,-0.002 c -0.53736,-0.17737 -1.07623,-0.35319 -1.61695,-0.52658 l 0.0212,0.004 c -0.13115,-0.0424 -0.26316,-0.0832 -0.39429,-0.12506 -0.0156,-0.005 -0.0313,-0.0108 -0.047,-0.016 l -0.008,-0.002 c -0.11837,-0.0376 -0.23667,-0.0733 -0.35502,-0.11059 -0.43305,-0.13689 -0.86724,-0.27194 -1.30224,-0.40617 -0.0823,-0.0254 -0.1647,-0.0517 -0.24702,-0.077 l -0.002,-0.002 c -0.14393,-0.0442 -0.28892,-0.0864 -0.43305,-0.13022 -0.44332,-0.13504 -0.88755,-0.26833 -1.33273,-0.4005 -0.14371,-0.0425 -0.28761,-0.0849 -0.4315,-0.12712 -0.57298,-0.16867 -1.14712,-0.33547 -1.722889,-0.49919 v -10e-4 c -0.121008,-0.0344 -0.243605,-0.0676 -0.364834,-0.1018 -4.937432,-1.3935 -9.969979,-2.60038 -15.025957,-3.56877 1.242089,-0.38217 2.524162,-0.82153 3.527951,-0.88057 8.148915,-0.47925 17.473789,-5.78657 25.642359,-12.2344 7.03077,-5.54985 13.31195,-8.63693 29.94081,-9.11262 0.3064,0.0772 0.62466,0.0956 0.93792,0.0543 0.13708,-0.0181 0.27242,-0.0475 0.40463,-0.0879 1.10282,-0.0216 2.2456,-0.0331 3.43907,-0.0331 0.092,-2.6e-4 0.18398,-0.006 0.27543,-0.016 z m 11.84786,7.87704 c -1.38079,-6e-5 -2.50017,1.11931 -2.50011,2.5001 -6e-5,1.3808 1.11931,2.50017 2.50011,2.50011 h 3.08405 c 1.38079,6e-5 2.50016,-1.11932 2.5001,-2.50011 6e-5,-1.38079 -1.11931,-2.50016 -2.5001,-2.5001 z m -40.34172,9.7069 c -1.3808,-6e-5 -2.50017,1.11931 -2.50011,2.50011 -6e-5,1.38079 1.11932,2.50016 2.50011,2.5001 h 3.08404 c 1.38059,-2.3e-4 2.49965,-1.11951 2.49959,-2.5001 6e-5,-1.38059 -1.119,-2.49988 -2.49959,-2.50011 z m 25.35917,2.96881 c -1.38079,-6e-5 -2.50016,1.11932 -2.5001,2.50011 -6e-5,1.38079 1.11931,2.50016 2.5001,2.5001 h 3.08405 c 1.38079,6e-5 2.50017,-1.11931 2.50011,-2.5001 6e-5,-1.3808 -1.11931,-2.50017 -2.50011,-2.50011 z m -77.969396,4.63434 c 0.601718,-0.004 1.203695,-3.6e-4 1.805575,0.0103 1.996022,0.1808 4.004805,0.41296 6.019787,0.6873 0.329356,0.0449 0.658664,0.0918 0.988052,0.139 0.37229,0.0533 0.744601,0.1075 1.117245,0.16382 0.266888,0.04 0.533858,0.0809 0.800984,0.12247 20.000772,3.13458 40.386043,10.49276 55.657583,18.4521 0.12911,0.0669 0.2638,0.1224 0.40256,0.16589 6.45027,2.03671 16.37656,1.32433 22.81463,0.74 h 0.004 c 2.25201,-0.2071 2.73148,0.37417 3.09387,0.83044 0.34909,0.43952 0.40102,0.80795 0.40463,0.83509 0.002,0.0319 0.003,0.0637 0.005,0.0956 0.008,0.1298 0.0135,0.25932 0.015,0.3886 7.5e-4,0.0685 -4.4e-4,0.13675 -0.002,0.20516 -0.002,0.10356 -0.005,0.20695 -0.0114,0.31006 -0.003,0.0614 -0.007,0.12276 -0.0119,0.18396 -0.40131,4.88089 -5.50384,9.15887 -10.35286,9.21701 -0.0243,-8.1e-4 -0.0462,-5.6e-4 -0.0708,-0.002 -0.0337,-0.001 -0.0675,-0.002 -0.10128,-0.002 0.029,0 -0.0546,-0.001 -0.0413,-0.002 -0.0577,-0.007 -0.1156,-0.0123 -0.17364,-0.0155 -0.20058,-0.01 -0.392,-0.0254 -0.57205,-0.047 -0.10957,-0.013 -0.21988,-0.0187 -0.33021,-0.0171 -0.17285,-0.0263 -0.34497,-0.0577 -0.51574,-0.0961 -0.053,-0.0122 -0.10646,-0.0227 -0.16019,-0.0315 l -58.196964,-9.19892 c -3.161821,-0.45662 -4.035484,4.18582 -0.923975,4.90978 l 70.335759,15.35978 c 0.19631,0.0427 0.39706,0.0616 0.59789,0.0563 11.77283,-0.3039 23.19318,-9.53617 35.45314,-18.37872 12.25278,-8.83736 25.18633,-17.42365 38.50359,-18.08779 2.11164,-0.0779 3.30213,0.21909 3.75997,0.43512 0.45853,0.21636 0.27115,0.14539 0.27337,0.15451 0.004,0.0145 -0.12016,0.47414 -0.17983,0.69557 -12.00011,11.04727 -28.25031,26.70328 -45.81426,39.68543 -17.72941,13.10445 -36.73638,23.27761 -53.33421,23.42751 -2.269,-0.002 -7.55522,-0.86867 -13.99398,-2.23604 -6.44462,-1.3686 -14.19427,-3.20931 -22.07617,-5.07256 -15.763822,-3.7265 -31.779768,-7.56195 -40.013574,-7.88479 -0.03254,-0.001 -0.0651,-0.002 -0.09767,-0.002 h -35.78903 v -47.76762 c 3.709765,-1.45608 22.056846,-8.31456 40.710177,-8.4305 z m 122.147066,2.27997 c -1.38079,-6e-5 -2.50017,1.11931 -2.50011,2.5001 2.3e-4,1.38059 1.11952,2.49965 2.50011,2.49959 h 3.08405 c 1.38059,6e-5 2.49987,-1.119 2.5001,-2.49959 6e-5,-1.38079 -1.11931,-2.50016 -2.5001,-2.5001 z m 35.09036,1.16168 0.002,0.002 c -0.006,0.002 -0.0125,0.003 -0.0186,0.004 0.0103,-0.003 0.0102,-0.004 0.0171,-0.006 z m -51.99269,3.44785 c -1.38059,-6e-5 -2.49988,1.119 -2.50011,2.49959 -6e-5,1.3808 1.11931,2.50017 2.50011,2.50011 h 3.08405 c 1.38079,6e-5 2.50016,-1.11932 2.5001,-2.50011 -2.3e-4,-1.38059 -1.11951,-2.49965 -2.5001,-2.49959 z"
       style="color:#000000;font-style:normal;font-variant:normal;font-weight:normal;font-stretch:normal;font-size:medium;line-height:normal;font-family:sans-serif;font-variant-ligatures:normal;font-variant-position:normal;font-variant-caps:normal;font-variant-numeric:normal;font-variant-alternates:normal;font-variant-east-asian:normal;font-feature-settings:normal;font-variation-settings:normal;text-indent:0;text-align:start;text-decoration:none;text-decoration-line:none;text-decoration-style:solid;text-decoration-color:#000000;letter-spacing:normal;word-spacing:normal;text-transform:none;writing-mode:lr-tb;direction:ltr;text-orientation:mixed;dominant-baseline:auto;baseline-shift:baseline;text-anchor:start;white-space:normal;shape-padding:0;shape-margin:0;inline-size:0;clip-rule:nonzero;display:inline;overflow:visible;visibility:visible;opacity:1;isolation:auto;mix-blend-mode:normal;color-interpolation:sRGB;color-interpolation-filters:linearRGB;solid-color:#000000;solid-opacity:1;vector-effect:none;fill:#00a800;fill-opacity:1;fill-rule:nonzero;stroke:#00a800;stroke-width:4.99999;stroke-linecap:round;stroke-linejoin:round;stroke-miterlimit:4;stroke-dasharray:none;stroke-dashoffset:0;stroke-opacity:1;color-rendering:auto;image-rendering:auto;shape-rendering:auto;text-rendering:auto;enable-background:accumulate;stop-color:#000000;stop-opacity:1"
       id="path1"
       sodipodi:nodetypes="cccccccccccccccccccccccccccccscccccsccccccccssscsccsscccccscscccccscsccsccccccsssccccsccccccccccccccccccsssccsccccccccscccscsccscccsssssscccccccccccccccccccccccccccccccccscccccccccccccccccscccccccccsccccccccccccsccccccccccccscccccccccccccccccccccccccccccccccccsccccccccccccscccscccccccccccccccccccccccccccccccsccsccccccccccccccccscsccscssscccccccccccccccccccccccc"
       inkscape:export-filename="path1.png"
       inkscape:export-xdpi="1200"
       inkscape:export-ydpi="1200" />
  </g>
</svg>
